<svg width="30" height="29" viewBox="0 0 30 29" fill="none" xmlns="http://www.w3.org/2000/svg">
<path d="M25.7072 8.61892V20.417C25.7072 23.9565 23.9375 26.3161 19.8081 26.3161H10.3696C6.24027 26.3161 4.47055 23.9565 4.47055 20.417V8.61892C4.47055 5.07948 6.24027 2.71985 10.3696 2.71985H19.8081C23.9375 2.71985 25.7072 5.07948 25.7072 8.61892Z" stroke="#8D8D8D" stroke-miterlimit="10" stroke-linecap="round" stroke-linejoin="round"/>
<path d="M19.2186 2.71985V11.9932C19.2186 12.5123 18.6051 12.7719 18.2275 12.4297L15.4904 9.90495C15.2662 9.69258 14.9122 9.69258 14.6881 9.90495L11.9509 12.4297C11.5734 12.7719 10.9599 12.5123 10.9599 11.9932V2.71985H19.2186Z" stroke="#8D8D8D" stroke-width="1.08906" stroke-miterlimit="10" stroke-linecap="round" stroke-linejoin="round"/>
<path d="M16.5637 16.8778H21.5779" stroke="#8D8D8D" stroke-width="1.08906" stroke-miterlimit="10" stroke-linecap="round" stroke-linejoin="round"/>
<path d="M11.5495 21.5968H21.5779" stroke="#8D8D8D" stroke-width="1.08906" stroke-miterlimit="10" stroke-linecap="round" stroke-linejoin="round"/>
</svg>
