<svg width="26" height="18" viewBox="0 0 26 18" fill="none" xmlns="http://www.w3.org/2000/svg">
<path d="M21.7041 1.9825C19.4367 0.849375 16.4267 0.25 13 0.25C9.57328 0.25 6.56328 0.849375 4.29594 1.9825C2.02859 3.11562 0.75 4.71031 0.75 6.375V11.625C0.75 13.2897 2.04281 14.8898 4.29594 16.0175C6.54906 17.1452 9.57328 17.75 13 17.75C16.4267 17.75 19.4367 17.1506 21.7041 16.0175C23.9714 14.8844 25.25 13.2897 25.25 11.625V6.375C25.25 4.71031 23.9572 3.11016 21.7041 1.9825ZM12.125 12.4825V15.9825C10.0469 15.9147 8.29688 15.6084 6.875 15.1633V11.7398C8.58905 12.1965 10.3516 12.4466 12.125 12.4847V12.4825ZM13.875 12.4825C15.6484 12.4444 17.4109 12.1943 19.125 11.7377V15.1622C17.7031 15.6073 15.9531 15.9136 13.875 15.9814V12.4825ZM2.5 11.625V9.60484C3.05065 10.0619 3.6535 10.4522 4.29594 10.7675C4.56172 10.8998 4.84281 11.0245 5.125 11.1427V14.4688C3.39359 13.6112 2.5 12.5317 2.5 11.625ZM20.875 14.4688V11.1427C21.1605 11.0245 21.4383 10.8998 21.7041 10.7675C22.3465 10.4522 22.9493 10.0619 23.5 9.60484V11.625C23.5 12.5317 22.6064 13.6112 20.875 14.4688Z" fill="#0048C4" fill-opacity="0.6"/>
</svg>
