<svg width="21" height="24" viewBox="0 0 21 24" fill="none" xmlns="http://www.w3.org/2000/svg">
<path d="M11 23.6668L10.7083 20.1668H10.4167C7.65556 20.1668 5.3125 19.2043 3.3875 17.2793C1.4625 15.3543 0.5 13.0113 0.5 10.2502C0.5 7.48905 1.4625 5.146 3.3875 3.221C5.3125 1.296 7.65556 0.333496 10.4167 0.333496C11.7972 0.333496 13.0856 0.590941 14.2818 1.10583C15.4781 1.62072 16.5281 2.33044 17.4318 3.235C18.3356 4.13955 19.0449 5.18955 19.5598 6.385C20.0747 7.58044 20.3326 8.86883 20.3333 10.2502C20.3333 11.7085 20.0949 13.1085 19.6182 14.4502C19.1414 15.7918 18.49 17.0363 17.664 18.1835C16.838 19.3307 15.8561 20.371 14.7182 21.3043C13.5803 22.2377 12.3409 23.0252 11 23.6668ZM10.3875 16.6377C10.7181 16.6377 11 16.521 11.2333 16.2877C11.4667 16.0543 11.5833 15.7724 11.5833 15.4418C11.5833 15.1113 11.4667 14.8293 11.2333 14.596C11 14.3627 10.7181 14.246 10.3875 14.246C10.0569 14.246 9.775 14.3627 9.54167 14.596C9.30833 14.8293 9.19167 15.1113 9.19167 15.4418C9.19167 15.7724 9.30833 16.0543 9.54167 16.2877C9.775 16.521 10.0569 16.6377 10.3875 16.6377ZM9.54167 12.9335H11.2917C11.2917 12.3502 11.35 11.9418 11.4667 11.7085C11.5833 11.4752 11.9528 11.0474 12.575 10.4252C12.925 10.0752 13.2167 9.696 13.45 9.28766C13.6833 8.87933 13.8 8.44183 13.8 7.97516C13.8 6.9835 13.4644 6.23955 12.7932 5.74333C12.1219 5.24711 11.3298 4.99939 10.4167 5.00016C9.56111 5.00016 8.84167 5.23855 8.25833 5.71533C7.675 6.19211 7.26667 6.77039 7.03333 7.45016L8.66667 8.09183C8.76389 7.76127 8.94861 7.43539 9.22083 7.11416C9.49306 6.79294 9.89167 6.63272 10.4167 6.6335C10.9417 6.6335 11.3352 6.77933 11.5973 7.071C11.8594 7.36266 11.9909 7.6835 11.9917 8.0335C11.9917 8.36405 11.8944 8.66077 11.7 8.92366C11.5056 9.18655 11.2722 9.45372 11 9.72516C10.3194 10.3085 9.90606 10.7705 9.75983 11.1112C9.61361 11.4518 9.54089 12.0593 9.54167 12.9335Z" fill="#0048C4" fill-opacity="0.6"/>
</svg>
