<svg width="25" height="25" viewBox="0 0 25 25" fill="none" xmlns="http://www.w3.org/2000/svg">
<path d="M10.2232 2.00667L10.2236 2.00636C11.5362 0.952153 13.636 0.959034 14.9667 2.01901C14.9668 2.01913 14.9669 2.01924 14.9671 2.01936L22.6905 8.19809C22.6911 8.19856 22.6917 8.19902 22.6923 8.19949C23.1522 8.57507 23.5458 9.15852 23.7989 9.82068C24.0517 10.4825 24.1478 11.1802 24.0583 11.7664L22.5728 20.6558C22.5727 20.6563 22.5727 20.6567 22.5726 20.6572C22.2708 22.3904 20.5888 23.8161 18.8417 23.8161H6.3357C4.56377 23.8161 2.91849 22.4246 2.61675 20.6696C2.61669 20.6693 2.61663 20.6689 2.61657 20.6685L1.13037 11.7749L1.13017 11.7738C1.03005 11.183 1.12041 10.4837 1.3728 9.82184C1.62516 9.16005 2.02377 8.57705 2.4946 8.20139L2.49547 8.20069L10.2232 2.00667ZM12.5887 20.9817C13.3486 20.9817 13.9736 20.3568 13.9736 19.5969V16.0574C13.9736 15.2976 13.3486 14.6726 12.5887 14.6726C11.8288 14.6726 11.2039 15.2976 11.2039 16.0574V19.5969C11.2039 20.3568 11.8288 20.9817 12.5887 20.9817Z" fill="#0048C4" stroke="#8D8D8D"/>
</svg>
