<svg width="18" height="24" viewBox="0 0 18 24" fill="none" xmlns="http://www.w3.org/2000/svg">
<path d="M8.99992 11.4168C8.22637 11.4168 7.48451 11.1095 6.93752 10.5626C6.39054 10.0156 6.08325 9.27371 6.08325 8.50016C6.08325 7.72661 6.39054 6.98475 6.93752 6.43777C7.48451 5.89079 8.22637 5.5835 8.99992 5.5835C9.77347 5.5835 10.5153 5.89079 11.0623 6.43777C11.6093 6.98475 11.9166 7.72661 11.9166 8.50016C11.9166 8.88319 11.8411 9.26246 11.6946 9.61632C11.548 9.97019 11.3332 10.2917 11.0623 10.5626C10.7915 10.8334 10.4699 11.0482 10.1161 11.1948C9.76221 11.3414 9.38294 11.4168 8.99992 11.4168ZM8.99992 0.333496C6.83398 0.333496 4.75676 1.19391 3.22521 2.72546C1.69367 4.257 0.833252 6.33423 0.833252 8.50016C0.833252 14.6252 8.99992 23.6668 8.99992 23.6668C8.99992 23.6668 17.1666 14.6252 17.1666 8.50016C17.1666 6.33423 16.3062 4.257 14.7746 2.72546C13.2431 1.19391 11.1659 0.333496 8.99992 0.333496Z" fill="#0048C4" fill-opacity="0.6"/>
</svg>
