<svg width="24" height="20" viewBox="0 0 24 20" fill="none" xmlns="http://www.w3.org/2000/svg">
<path d="M6.75 10C6.75 9.76794 6.84219 9.54538 7.00628 9.38128C7.17038 9.21719 7.39294 9.125 7.625 9.125H15.5V3.4375C15.5 1.6875 13.6521 0.375 12 0.375H3.6875C2.87554 0.375869 2.09709 0.698803 1.52294 1.27294C0.948803 1.84709 0.625869 2.62554 0.625 3.4375V16.5625C0.625869 17.3745 0.948803 18.1529 1.52294 18.7271C2.09709 19.3012 2.87554 19.6241 3.6875 19.625H12.4375C13.2495 19.6241 14.0279 19.3012 14.6021 18.7271C15.1762 18.1529 15.4991 17.3745 15.5 16.5625V10.875H7.625C7.39294 10.875 7.17038 10.7828 7.00628 10.6187C6.84219 10.4546 6.75 10.2321 6.75 10ZM23.1185 9.38148L18.7435 5.00648C18.5781 4.84932 18.3578 4.76299 18.1296 4.76591C17.9015 4.76883 17.6835 4.86077 17.5221 5.02212C17.3608 5.18347 17.2688 5.40147 17.2659 5.62964C17.263 5.85781 17.3493 6.07809 17.5065 6.24352L20.3874 9.125H15.5V10.875H20.3874L17.5065 13.7565C17.4218 13.8369 17.3541 13.9335 17.3073 14.0405C17.2606 14.1476 17.2357 14.2629 17.2342 14.3796C17.2327 14.4964 17.2546 14.6123 17.2986 14.7205C17.3426 14.8287 17.4079 14.927 17.4904 15.0096C17.573 15.0921 17.6713 15.1574 17.7795 15.2014C17.8877 15.2454 18.0036 15.2673 18.1204 15.2658C18.2371 15.2643 18.3524 15.2394 18.4595 15.1927C18.5665 15.1459 18.6631 15.0782 18.7435 14.9935L23.1185 10.6185C23.2825 10.4544 23.3746 10.232 23.3746 10C23.3746 9.76803 23.2825 9.54556 23.1185 9.38148Z" fill="#0048C4" fill-opacity="0.6"/>
</svg>
