<svg width="20" height="20" viewBox="0 0 20 20" fill="none" xmlns="http://www.w3.org/2000/svg">
<path d="M10 0C15.523 0 20 4.477 20 10C20 15.523 15.523 20 10 20C4.477 20 0 15.523 0 10C0 4.477 4.477 0 10 0ZM9.293 6.464L6.464 9.293C6.27653 9.48053 6.17121 9.73484 6.17121 10C6.17121 10.2652 6.27653 10.5195 6.464 10.707L9.293 13.536C9.48053 13.7235 9.73484 13.8288 10 13.8288C10.2652 13.8288 10.5195 13.7235 10.707 13.536L13.536 10.707C13.7235 10.5195 13.8288 10.2652 13.8288 10C13.8288 9.73484 13.7235 9.48053 13.536 9.293L10.707 6.464C10.5195 6.27653 10.2652 6.17121 10 6.17121C9.73484 6.17121 9.48053 6.27653 9.293 6.464Z" fill="#FFCC4D"/>
</svg>
