<svg width="41" height="40" viewBox="0 0 41 40" fill="none" xmlns="http://www.w3.org/2000/svg">
<rect x="0.5" width="40" height="40" rx="20" fill="#F5F5F5"/>
<path d="M27.4086 23.8633C27.6547 24.1367 27.6547 24.5469 27.3812 24.793L26.6156 25.5586C26.3695 25.832 25.9594 25.832 25.6859 25.5586L22.9789 22.8516C22.8422 22.7148 22.7875 22.5508 22.7875 22.3867V21.9219C21.8031 22.6875 20.6 23.125 19.2875 23.125C16.143 23.125 13.6 20.582 13.6 17.4375C13.6 14.3203 16.143 11.75 19.2875 11.75C22.4047 11.75 24.975 14.3203 24.975 17.4375C24.975 18.7773 24.5102 19.9805 23.7719 20.9375H24.2094C24.3734 20.9375 24.5375 21.0195 24.6742 21.1289L27.4086 23.8633ZM19.2875 20.9375C21.2016 20.9375 22.7875 19.3789 22.7875 17.4375C22.7875 15.5234 21.2016 13.9375 19.2875 13.9375C17.3461 13.9375 15.7875 15.5234 15.7875 17.4375C15.7875 19.3789 17.3461 20.9375 19.2875 20.9375Z" fill="#555555"/>
</svg>
