<svg width="48" height="48" viewBox="0 0 48 48" fill="none" xmlns="http://www.w3.org/2000/svg">
<path d="M24.0001 0.666504C11.1201 0.666504 0.666748 11.1198 0.666748 23.9998C0.666748 36.8798 11.1201 47.3332 24.0001 47.3332C36.8801 47.3332 47.3334 36.8798 47.3334 23.9998C47.3334 11.1198 36.8801 0.666504 24.0001 0.666504ZM24.0001 9.99984C28.5034 9.99984 32.1668 13.6632 32.1668 18.1665C32.1668 22.6698 28.5034 26.3332 24.0001 26.3332C19.4967 26.3332 15.8334 22.6698 15.8334 18.1665C15.8334 13.6632 19.4967 9.99984 24.0001 9.99984ZM24.0001 42.6665C19.2634 42.6665 13.6634 40.7532 9.67342 35.9465C13.7605 32.7399 18.8052 30.997 24.0001 30.997C29.195 30.997 34.2397 32.7399 38.3268 35.9465C34.3368 40.7532 28.7367 42.6665 24.0001 42.6665Z" fill="white" fill-opacity="0.6"/>
</svg>
